<?xml version="1.0" standalone="no"?>
<!DOCTYPE svg PUBLIC "-//W3C//DTD SVG 20010904//EN"
 "http://www.w3.org/TR/2001/REC-SVG-20010904/DTD/svg10.dtd">
<svg version="1.0" xmlns="http://www.w3.org/2000/svg"
 width="700.000000pt" height="700.000000pt" viewBox="0 0 700.000000 700.000000"
 preserveAspectRatio="xMidYMid meet">
<metadata>
Created by potrace 1.14, written by Peter Selinger 2001-2017
</metadata>
<g transform="translate(0.000000,700.000000) scale(0.100000,-0.100000)"
fill="#000000" stroke="none">
<path d="M3269 6995 c-2 -1 -42 -6 -89 -9 -127 -10 -177 -16 -245 -30 -11 -2
-40 -7 -65 -11 -89 -14 -327 -74 -435 -110 -595 -200 -1155 -568 -1554 -1022
-206 -234 -385 -503 -511 -768 -87 -182 -105 -225 -152 -350 -78 -208 -143
-444 -172 -630 -2 -16 -8 -50 -12 -75 -7 -50 -9 -66 -21 -190 -15 -162 -7
-637 12 -735 2 -11 7 -40 10 -65 3 -25 7 -56 10 -70 2 -14 11 -67 20 -118 50
-293 186 -685 332 -962 165 -311 339 -546 588 -796 282 -284 539 -472 890
-650 262 -132 630 -266 851 -308 11 -2 37 -9 59 -14 22 -6 54 -13 70 -16 17
-3 59 -10 95 -16 36 -7 80 -14 98 -16 17 -2 49 -6 70 -9 229 -30 596 -23 854
15 926 136 1734 581 2279 1255 373 463 635 1081 713 1690 26 199 26 201 30
475 6 418 -37 713 -155 1077 -68 210 -192 491 -294 668 -19 33 -42 73 -51 90
-66 116 -226 338 -342 473 -64 75 -258 272 -337 343 -119 105 -456 359 -478
359 -2 0 -44 23 -93 52 -114 66 -382 195 -502 242 -237 93 -481 159 -707 191
-22 3 -51 8 -65 10 -14 2 -52 7 -85 11 -33 3 -73 8 -90 11 -35 5 -521 13 -526
8z m471 -459 c58 -4 112 -8 120 -11 8 -2 38 -7 65 -10 489 -64 1019 -282 1393
-573 156 -120 173 -148 32 -49 -185 128 -277 185 -416 255 -242 122 -544 229
-779 276 -16 4 -41 9 -55 12 -25 5 -165 28 -231 38 -125 19 -467 26 -640 13
-250 -18 -569 -97 -869 -216 -118 -46 -379 -175 -447 -221 -24 -17 -47 -30
-50 -30 -7 0 -216 -144 -278 -193 -97 -75 -119 -92 -129 -102 -6 -5 -38 -32
-71 -60 -33 -27 -81 -71 -107 -97 -27 -25 -48 -43 -48 -38 0 5 48 53 108 108
470 437 934 701 1442 820 120 28 216 47 300 58 25 3 55 7 67 9 12 2 68 7 125
10 57 4 104 8 105 9 5 4 267 -2 363 -8z m-10 -71 c58 -3 116 -8 130 -9 102
-14 124 -17 129 -21 3 -1 30 -6 60 -10 111 -14 474 -126 574 -177 23 -11 47
-16 60 -13 15 4 18 3 9 -3 -9 -6 1 -16 37 -34 182 -95 343 -193 471 -286 87
-64 260 -203 260 -209 0 -2 -39 26 -87 62 -129 96 -290 205 -302 205 -6 0 -11
5 -11 10 0 6 -3 10 -8 10 -4 0 -61 29 -127 65 -363 197 -789 325 -1200 361
-76 6 -378 6 -425 0 -19 -3 -71 -8 -115 -11 -44 -4 -82 -8 -85 -10 -3 -2 -26
-6 -50 -10 -64 -9 -230 -44 -260 -55 -14 -5 -65 -21 -115 -35 -237 -70 -524
-198 -695 -310 -19 -13 -73 -47 -120 -77 -47 -30 -143 -98 -213 -151 -70 -53
-130 -97 -133 -97 -7 0 201 166 235 188 14 9 28 19 31 23 8 10 290 193 366
237 39 22 115 64 170 92 54 28 88 48 74 44 -51 -14 -189 -84 -335 -169 -82
-48 -166 -96 -186 -107 -44 -24 -139 -95 -273 -202 -91 -73 -251 -210 -254
-219 -2 -4 -13 -12 -25 -18 -52 -24 247 238 416 365 84 63 188 127 385 237
105 58 348 161 387 163 11 1 31 8 45 15 19 11 163 56 240 76 330 85 549 103
940 80z m50 -239 c19 -3 55 -8 80 -11 51 -6 66 -8 170 -30 311 -65 626 -207
975 -438 209 -139 396 -308 544 -492 40 -49 78 -97 86 -106 65 -81 195 -312
183 -325 -2 -1 -23 30 -47 69 -126 205 -301 405 -521 598 -203 176 -493 345
-783 453 -99 37 -306 100 -362 109 -16 3 -55 11 -85 17 -30 6 -71 13 -90 16
-19 2 -44 6 -55 8 -83 19 -426 26 -585 13 -99 -9 -246 -31 -345 -53 -38 -9
-81 -18 -95 -21 -48 -9 -216 -61 -315 -98 -224 -83 -489 -230 -670 -370 -124
-96 -295 -256 -362 -340 -114 -141 -146 -184 -225 -305 -49 -74 -123 -202
-163 -285 -69 -141 -155 -357 -155 -389 0 -8 -4 -17 -9 -21 -14 -8 42 197 84
311 125 335 331 643 620 925 434 425 1015 701 1605 763 118 12 441 13 520 2z
m995 -21 c32 -14 55 -28 52 -31 -3 -3 -31 8 -63 25 -72 37 -66 40 11 6z m174
-86 c112 -60 299 -182 356 -234 34 -32 32 -31 -20 8 -118 87 -244 165 -377
235 -63 32 -78 42 -62 42 4 0 50 -23 103 -51z m-1159 -189 c70 -9 220 -37 304
-55 168 -37 459 -158 665 -275 184 -105 396 -284 540 -455 70 -83 191 -260
191 -279 0 -6 -7 -2 -16 9 -84 111 -292 330 -414 436 -292 252 -772 464 -1185
524 -23 3 -50 7 -61 9 -83 16 -359 23 -504 12 -405 -30 -883 -206 -1220 -450
-172 -124 -354 -298 -483 -460 -26 -34 -53 -68 -60 -76 -7 -8 -36 -51 -66 -95
-84 -124 -90 -123 -23 4 259 495 816 923 1402 1079 135 36 294 66 411 78 35 3
65 7 67 9 8 8 377 -4 452 -15z m2054 -515 c98 -130 90 -128 -24 9 -45 55 -97
114 -114 131 -70 71 -65 75 8 5 42 -41 101 -106 130 -145z m-2019 96 c183 -30
181 -30 323 -77 124 -40 307 -122 297 -132 -2 -2 -53 16 -112 41 -192 81 -393
130 -628 153 -117 11 -410 5 -495 -11 -14 -3 -41 -7 -60 -10 -83 -13 -244 -60
-365 -106 -170 -66 -190 -69 -80 -14 171 85 432 156 628 171 45 4 83 8 85 9
11 9 311 -9 407 -24z m-64 -216 c196 -28 356 -78 544 -170 219 -107 410 -245
525 -380 l25 -29 -25 16 c-14 8 -63 43 -110 76 -382 275 -774 419 -1160 426
-210 5 -400 -24 -598 -90 -194 -65 -488 -219 -595 -313 -72 -64 -30 8 48 82
110 105 384 254 576 315 124 40 282 71 394 79 50 3 91 6 92 7 8 7 195 -6 284
-19z m1031 -128 c158 -113 345 -312 405 -432 19 -38 13 -32 -83 85 -101 122
-248 270 -348 348 -102 80 -86 79 26 -1z m1469 -95 c-6 -26 -13 -58 -15 -72
-2 -14 -16 -80 -30 -148 -35 -166 -35 -164 12 -148 60 21 162 13 225 -17 243
-119 283 -474 86 -764 -34 -50 -160 -180 -216 -223 -18 -14 -33 -28 -33 -31 0
-3 17 -24 37 -45 52 -55 116 -158 146 -234 23 -61 28 -77 42 -155 7 -37 7
-198 0 -228 -3 -12 -7 -33 -9 -47 -35 -187 -151 -381 -301 -503 -73 -59 -215
-129 -310 -152 -89 -22 -322 -28 -426 -10 -41 7 -92 15 -114 19 -34 5 -73 14
-225 51 -8 2 -58 16 -110 31 -52 14 -102 27 -110 29 -8 2 -64 17 -125 33 -437
118 -765 147 -940 81 -144 -54 -204 -156 -147 -253 49 -84 175 -94 327 -25
100 45 158 58 245 55 85 -3 230 -38 230 -56 0 -28 -346 -210 -475 -250 -246
-75 -476 1 -563 188 -23 48 -27 71 -27 142 0 178 72 287 250 376 111 55 204
74 380 77 181 4 289 -11 635 -88 8 -1 78 -19 155 -40 77 -20 147 -38 155 -40
9 -2 85 -21 170 -43 141 -37 206 -51 312 -66 77 -12 226 -7 303 9 235 48 420
230 476 465 43 181 0 350 -118 466 -61 61 -164 112 -191 95 -6 -3 -18 -47 -26
-96 -23 -132 -26 -156 -41 -275 -4 -30 -9 -66 -11 -80 -3 -14 -8 -93 -11 -175
-5 -123 -3 -161 11 -205 22 -76 29 -84 71 -83 20 1 35 -1 32 -3 -16 -17 -128
-65 -173 -75 -94 -21 -144 17 -170 129 -14 58 -19 222 -9 302 9 72 26 193 31
225 5 32 71 376 78 410 2 11 12 54 21 95 9 41 18 86 21 100 2 14 11 54 19 90
16 70 81 379 89 420 2 14 9 45 15 70 5 25 12 56 14 70 3 14 19 95 36 181 17
85 33 164 35 175 37 192 50 250 55 256 10 12 216 54 219 46 2 -5 -1 -30 -7
-56z m-2531 -1 c36 -6 79 -13 95 -16 74 -13 294 -91 383 -137 53 -27 107 -55
119 -61 26 -14 28 -26 10 -50 -11 -16 -21 -13 -122 36 -430 212 -887 228
-1292 46 -55 -25 -68 -24 -81 5 -10 22 -8 27 21 43 59 35 157 70 286 103 90
24 104 26 196 36 33 3 61 7 63 9 8 7 264 -4 322 -14z m-2890 -153 c-74 -126
-173 -345 -215 -473 -25 -75 -45 -145 -46 -154 0 -9 -3 -11 -5 -4 -7 17 30
158 71 267 40 107 110 247 175 349 50 79 64 89 20 15z m1230 -254 c-18 -98
-34 -195 -36 -214 -3 -19 -7 -46 -9 -60 -24 -125 -119 -745 -130 -850 -3 -30
-8 -62 -10 -70 -2 -8 -7 -46 -10 -85 -4 -38 -11 -104 -15 -145 -8 -76 -6 -384
4 -430 2 -14 7 -47 11 -74 16 -129 76 -328 132 -441 130 -261 320 -472 498
-556 108 -51 243 -73 329 -54 85 18 152 81 187 175 45 120 -4 266 -105 311
-64 28 -128 11 -156 -42 -7 -11 -1 -26 20 -50 36 -42 38 -78 5 -118 -47 -55
-125 -64 -185 -21 -42 30 -80 113 -80 177 0 107 81 228 189 280 49 25 67 28
151 28 86 0 101 -3 163 -32 167 -79 269 -258 261 -459 -7 -190 -109 -377 -249
-459 -130 -77 -304 -97 -465 -56 -219 57 -455 217 -630 426 -121 146 -250 412
-295 605 0 3 -5 23 -10 45 -5 22 -9 42 -10 45 -1 3 -5 28 -9 55 -4 28 -10 61
-12 75 -2 14 -7 72 -10 130 -5 95 -9 111 -41 170 -51 95 -153 248 -241 363
-42 54 -87 113 -99 129 l-21 30 -36 -62 c-202 -345 -313 -577 -341 -715 -13
-67 -13 -221 1 -275 33 -125 95 -215 177 -254 102 -50 176 -46 238 13 32 31
39 45 39 75 0 41 -37 85 -74 87 -51 3 -51 3 -50 41 2 74 66 130 144 127 81 -4
137 -43 181 -129 19 -38 23 -60 23 -135 0 -78 -4 -98 -28 -148 -36 -73 -118
-149 -191 -176 -299 -112 -605 61 -708 399 -23 75 -32 284 -16 365 5 28 12 61
14 75 26 140 88 281 243 555 103 181 104 182 151 255 l42 65 -33 28 c-18 15
-60 41 -93 57 -111 55 -213 59 -304 13 -81 -42 -113 -111 -85 -182 17 -40 34
-55 91 -81 37 -17 41 -22 37 -47 -11 -67 -77 -115 -157 -116 -158 -1 -261 175
-213 363 37 145 140 256 281 305 72 24 91 27 185 28 132 1 258 -45 371 -134
l36 -29 163 263 c287 461 339 530 468 614 49 31 159 79 207 89 112 24 140 28
143 23 1 -3 -11 -86 -28 -185z m643 110 c36 -10 86 -53 112 -93 83 -133 63
-324 -60 -571 -25 -50 -43 -95 -41 -99 3 -4 43 -2 90 4 47 7 86 11 86 10 0 -2
-7 -21 -15 -44 -12 -34 -41 -165 -90 -401 -39 -190 -105 -544 -103 -552 2 -5
34 53 70 129 37 76 100 208 141 293 91 189 196 432 226 520 26 78 30 85 56 86
55 3 161 16 168 21 15 9 -3 -56 -58 -207 -64 -177 -108 -276 -215 -490 -118
-235 -236 -439 -302 -521 -27 -33 -91 -69 -124 -69 -135 0 -158 130 -98 545
14 98 76 408 97 488 14 52 20 86 13 84 -6 -2 -38 -49 -71 -104 -133 -221 -238
-368 -344 -483 -64 -69 -69 -82 -76 -191 -6 -122 27 -205 73 -180 30 16 65 68
125 186 l56 110 -5 -70 c-15 -261 -33 -326 -114 -399 -91 -82 -180 -87 -246
-14 -53 57 -76 144 -79 298 -3 130 10 272 40 435 22 121 22 122 49 240 95 421
221 771 325 902 91 115 212 168 314 137z m1889 -139 c24 -4 75 -22 114 -41
184 -87 283 -282 271 -534 -7 -133 -12 -164 -49 -275 -139 -415 -477 -745
-852 -830 -111 -25 -136 -27 -136 -9 0 9 39 167 86 352 47 186 101 399 120
475 19 75 37 145 39 155 2 9 27 107 56 217 28 110 54 213 57 228 2 16 10 30
16 33 6 2 55 5 109 8 91 3 97 2 97 -16 0 -11 -43 -189 -96 -396 -52 -208 -97
-386 -100 -397 -2 -11 -22 -87 -43 -170 -37 -142 -41 -151 -81 -188 -23 -22
-39 -41 -37 -43 11 -12 172 111 257 196 156 155 260 328 305 504 39 153 28
292 -30 391 -72 123 -168 170 -349 174 -52 1 -100 8 -115 16 -33 17 -74 62
-89 98 -10 23 -9 27 6 28 28 1 95 8 126 14 16 3 59 8 95 11 36 4 67 8 69 9 5
4 108 -3 154 -10z m1244 -73 c-4 -20 -18 -86 -31 -147 -13 -60 -47 -218 -75
-350 -46 -213 -56 -265 -76 -365 -3 -14 -19 -88 -35 -165 -38 -178 -38 -170
-14 -170 17 0 20 -7 21 -55 1 -60 -33 -270 -46 -283 -11 -12 -70 20 -98 52
-24 27 -49 99 -59 166 -3 22 -6 41 -8 43 -1 1 -18 -24 -39 -57 -74 -121 -185
-191 -296 -188 -70 3 -121 33 -158 95 -46 79 -39 155 41 462 36 140 94 372
127 515 33 143 67 283 75 311 15 51 15 51 62 58 91 12 118 17 142 22 21 4 23
2 19 -23 -8 -45 -144 -649 -199 -883 -56 -234 -60 -272 -33 -301 24 -27 54
-24 101 10 71 52 120 136 138 241 3 18 8 36 10 40 2 4 7 22 10 41 3 19 10 50
15 69 5 19 11 46 14 60 3 14 7 34 10 45 2 11 41 182 85 379 45 198 85 364 89
368 9 9 16 11 106 28 27 6 51 11 52 13 2 1 15 4 30 5 25 2 26 0 20 -36z
m-1700 -369 c-30 -107 -172 -657 -191 -743 -2 -8 -19 -80 -39 -159 -20 -79
-36 -148 -36 -153 0 -5 13 -7 30 -3 17 4 30 4 30 2 0 -23 -36 -139 -52 -168
-43 -78 -138 -86 -172 -14 -9 18 -16 42 -16 54 0 12 -4 21 -10 21 -5 0 -10 -4
-10 -9 0 -21 -99 -106 -149 -129 -144 -66 -291 -2 -350 152 -25 64 -22 205 5
281 89 251 365 481 614 512 53 6 57 9 63 41 3 16 9 41 13 56 6 26 5 26 -32 20
-113 -17 -291 -97 -412 -185 -36 -27 -70 -49 -73 -49 -13 0 58 177 89 222 93
135 284 222 557 253 33 4 61 8 62 9 1 1 21 3 44 4 35 3 40 0 35 -15z m1313
-1367 c-23 -47 -55 -97 -72 -113 l-29 -28 22 45 c13 25 42 76 66 113 24 37 44
73 45 80 0 9 2 9 5 0 3 -7 -14 -50 -37 -97z m-55 42 c-24 -46 -92 -145 -105
-154 -15 -9 -11 -1 60 108 56 87 77 108 45 46z m121 -49 c-17 -46 -75 -143
-82 -135 -4 3 12 39 67 144 28 53 35 49 15 -9z m78 9 c-6 -43 -61 -146 -84
-158 -12 -7 -1 22 33 90 28 55 52 100 53 100 2 0 1 -15 -2 -32z m-2639 -212
c39 -16 221 -62 286 -72 32 -5 39 -9 25 -14 -10 -4 -37 -3 -60 1 -22 4 -57 10
-78 13 -44 7 -162 47 -203 69 -36 20 -15 22 30 3z m1936 -406 c0 -13 -162
-172 -207 -202 -58 -40 -36 -39 35 2 37 21 66 43 65 49 -2 6 3 8 10 5 14 -5
87 46 152 107 67 64 56 34 -21 -53 -16 -18 -64 -63 -106 -100 -43 -38 -74 -68
-69 -68 4 0 20 9 34 20 14 11 28 20 32 20 10 0 151 96 203 138 76 62 56 26
-35 -65 -149 -147 -314 -253 -527 -338 -108 -43 -258 -90 -320 -100 -17 -3
-38 -8 -46 -10 -8 -2 -31 -7 -50 -10 -19 -3 -48 -8 -64 -11 -132 -27 -516 -38
-539 -15 -8 8 1 11 33 12 25 1 56 2 70 4 14 2 50 6 80 9 30 4 66 8 80 11 14 2
75 11 135 20 110 17 186 40 90 28 -48 -7 -376 -8 -443 -3 -44 4 -31 14 21 16
71 3 166 13 292 29 242 31 266 34 285 46 11 7 7 8 -11 3 -54 -12 -179 -19
-304 -18 -182 3 -199 3 -193 9 5 5 70 11 211 20 84 5 147 14 272 39 120 24
357 110 471 170 100 53 265 162 319 210 45 40 45 40 45 26z m765 -238 c-61
-86 -231 -242 -411 -377 -186 -140 -372 -242 -654 -358 -242 -99 -592 -183
-855 -204 -156 -13 -577 -5 -604 11 -3 2 -27 7 -53 10 -53 7 -223 42 -283 58
-22 5 -48 12 -58 14 -45 8 -232 71 -327 109 -310 125 -522 262 -743 477 -87
86 -79 87 13 3 150 -139 309 -244 550 -364 290 -146 534 -216 925 -265 105
-14 579 -16 630 -3 11 2 45 8 75 11 43 6 198 34 330 61 8 2 58 15 110 30 488
138 919 387 1299 752 47 46 87 83 88 83 2 0 -13 -22 -32 -48z m-15 -465 c-223
-214 -564 -446 -820 -560 -78 -35 -339 -137 -352 -138 -7 0 -8 -2 -2 -5 6 -3
62 14 125 37 63 23 132 48 154 56 22 8 56 21 75 30 19 8 51 22 70 31 177 76
452 235 605 349 69 51 125 88 125 83 0 -6 -3 -10 -7 -10 -5 0 -26 -17 -48 -38
-166 -157 -569 -403 -800 -488 -243 -89 -459 -153 -615 -183 -261 -50 -397
-62 -663 -62 -111 1 -222 3 -247 5 -25 3 -74 7 -110 11 -36 3 -76 8 -90 10
-14 2 -45 7 -70 10 -25 4 -87 15 -139 26 -51 12 -102 22 -113 24 -56 11 -294
88 -368 120 -98 42 -98 42 120 -18 264 -72 411 -99 590 -111 l85 -5 -100 20
c-55 11 -161 33 -235 50 -74 16 -144 32 -155 35 -11 2 -33 8 -50 14 -28 9 -28
9 10 5 22 -2 71 -11 108 -20 65 -15 205 -36 332 -51 33 -3 69 -8 80 -10 132
-25 545 -25 715 1 14 2 54 6 90 10 36 4 81 10 100 15 19 5 53 11 74 15 114 17
486 131 656 201 76 32 300 148 410 214 114 67 321 220 440 324 41 36 77 66 80
65 3 0 -24 -28 -60 -62z m-100 -31 c0 -3 -46 -39 -102 -81 -57 -42 -110 -82
-118 -88 -99 -78 -406 -249 -585 -325 -196 -84 -507 -177 -695 -208 -64 -11
-86 -14 -105 -18 -21 -4 -90 -12 -224 -26 -84 -8 -453 -5 -516 5 -22 3 -69 10
-105 15 -311 46 -620 137 -855 251 -96 47 -110 64 -19 24 76 -35 288 -108 384
-134 87 -23 352 -77 425 -87 28 -3 59 -8 70 -10 85 -17 443 -23 620 -11 399
27 848 153 1229 344 174 87 440 243 546 320 47 34 50 36 50 29z m-580 -80 c0
-11 -157 -101 -270 -154 -174 -82 -448 -176 -605 -207 -77 -15 -246 -44 -295
-50 -84 -11 -477 -14 -545 -5 -33 5 -80 11 -105 14 -233 28 -529 108 -728 195
-106 47 -252 120 -252 127 0 3 3 3 8 1 54 -33 285 -130 422 -178 80 -29 319
-82 465 -105 128 -20 170 -25 245 -30 155 -10 401 -5 519 12 223 31 416 76
611 141 147 50 370 148 465 206 64 39 65 39 65 33z m-2399 -584 c-7 -2 -18 1
-23 6 -8 8 -4 9 13 5 13 -4 18 -8 10 -11z"/>
<path d="M2480 6280 c-9 -6 -10 -10 -3 -10 6 0 15 5 18 10 8 12 4 12 -15 0z"/>
<path d="M2435 6260 c-16 -7 -17 -9 -3 -9 9 -1 20 4 23 9 7 11 7 11 -20 0z"/>
<path d="M6196 4496 c-21 -8 -42 -18 -47 -23 -6 -6 -111 -511 -143 -690 -4
-22 -2 -21 52 14 255 162 390 359 376 548 -6 68 -33 114 -85 141 -41 21 -110
25 -153 10z"/>
<path d="M1786 4486 c-9 -14 -24 -38 -33 -53 -9 -16 -113 -187 -230 -382 -184
-304 -212 -355 -201 -369 7 -9 26 -30 41 -47 16 -16 74 -90 129 -163 55 -73
103 -130 106 -127 7 6 9 17 17 94 3 30 7 57 9 60 2 3 7 37 11 76 4 38 8 72 10
75 1 3 6 28 9 55 4 28 13 88 21 135 8 47 16 101 19 120 3 19 8 46 11 60 3 14
12 66 21 115 8 50 19 106 24 125 5 19 12 49 15 65 3 17 14 64 25 105 10 41 17
76 15 78 -2 2 -11 -8 -19 -22z"/>
<path d="M2556 4507 c-70 -75 -150 -300 -247 -697 -27 -113 -54 -220 -59 -239
-5 -18 -6 -30 -3 -27 13 13 158 289 263 501 144 292 183 414 150 476 -17 32
-67 25 -104 -14z"/>
<path d="M3697 3606 c-115 -47 -201 -134 -272 -275 -29 -58 -40 -144 -24 -190
11 -31 56 -61 91 -61 31 0 109 50 135 86 59 83 129 277 157 432 7 40 -6 41
-87 8z"/>
<path d="M4425 790 c-13 -6 -15 -9 -5 -9 8 0 22 4 30 9 18 12 2 12 -25 0z"/>
</g>
</svg>
